# xmcd
#
# Track frame offsets:
#	150
#	19404
#	31290
#	42038
#	54065
#	65761
#	78722
#	90635
#	102635
#	116053
#
# Disc length: 1696 seconds
# Revision: 0
# Processed by: cddbd v1.5.2PL0 Copyright (c) Steve Scherf et al.
# Submitted via: dBpowerAMP V12.0
#
DISCID=82069e0a
DTITLE=Merle Haggard - Merle Haggard Greatest Hits
DYEAR=1900
DGENRE=Country
TTITLE0=I think I'll Just Stay Here An
TTITLE1=I'm Always On A Mountain When
TTITLE2=Red Bandana
TTITLE3=The Way I Am
TTITLE4=It's Been A Great Afternoon
TTITLE5=Ramblin' Fever
TTITLE6=Misery And Gin
TTITLE7=My Own Kind Of Hat
TTITLE8=If We're Not Back In Love By M
TTITLE9=Rainbow Stew
EXTD=
EXTT0=
EXTT1=
EXTT2=
EXTT3=
EXTT4=
EXTT5=
EXTT6=
EXTT7=
EXTT8=
EXTT9=
PLAYORDER=
